<mxfile host="app.diagrams.net" modified="2024-05-03T14:53:30.811Z" agent="Mozilla/5.0 (Windows NT 10.0; Win64; x64; rv:125.0) Gecko/20100101 Firefox/125.0" etag="qwFDM5ALlh-m0BSQEs94" version="24.3.1" type="github">
  <diagram name="Page-1" id="e7e014a7-5840-1c2e-5031-d8a46d1fe8dd">
    <mxGraphModel dx="2603" dy="874" grid="1" gridSize="10" guides="1" tooltips="1" connect="1" arrows="1" fold="1" page="1" pageScale="1" pageWidth="1169" pageHeight="826" background="none" math="0" shadow="0">
      <root>
        <mxCell id="0" />
        <mxCell id="1" parent="0" />
        <mxCell id="2" value="Usuario" style="swimlane;whiteSpace=wrap" parent="1" vertex="1">
          <mxGeometry x="-97" y="128" width="327" height="570" as="geometry" />
        </mxCell>
        <mxCell id="5" value="" style="ellipse;shape=startState;fillColor=#000000;strokeColor=#ff0000;" parent="2" vertex="1">
          <mxGeometry x="100" y="40" width="30" height="30" as="geometry" />
        </mxCell>
        <mxCell id="6" value="" style="edgeStyle=elbowEdgeStyle;elbow=horizontal;verticalAlign=bottom;endArrow=open;endSize=8;strokeColor=#FF0000;endFill=1;rounded=0" parent="2" source="5" target="7" edge="1">
          <mxGeometry x="100" y="40" as="geometry">
            <mxPoint x="115" y="110" as="targetPoint" />
          </mxGeometry>
        </mxCell>
        <mxCell id="DqZLcIyAYDGECO1wRY2--42" value="" style="edgeStyle=orthogonalEdgeStyle;rounded=0;orthogonalLoop=1;jettySize=auto;html=1;" edge="1" parent="2" source="7" target="DqZLcIyAYDGECO1wRY2--41">
          <mxGeometry relative="1" as="geometry" />
        </mxCell>
        <mxCell id="DqZLcIyAYDGECO1wRY2--44" value="" style="edgeStyle=orthogonalEdgeStyle;rounded=0;orthogonalLoop=1;jettySize=auto;html=1;" edge="1" parent="2" source="7" target="DqZLcIyAYDGECO1wRY2--43">
          <mxGeometry relative="1" as="geometry" />
        </mxCell>
        <mxCell id="7" value="Request  SR/TR" style="" parent="2" vertex="1">
          <mxGeometry x="60" y="110" width="110" height="50" as="geometry" />
        </mxCell>
        <mxCell id="DqZLcIyAYDGECO1wRY2--41" value="Docs" style="shape=document;whiteSpace=wrap;html=1;boundedLbl=1;" vertex="1" parent="2">
          <mxGeometry x="195.5" y="95" width="120" height="80" as="geometry" />
        </mxCell>
        <mxCell id="DqZLcIyAYDGECO1wRY2--43" value="Is Data Valid?" style="rhombus;whiteSpace=wrap;html=1;" vertex="1" parent="2">
          <mxGeometry x="62.5" y="222" width="105" height="80" as="geometry" />
        </mxCell>
        <mxCell id="3" value="Laboratorio" style="swimlane;whiteSpace=wrap" parent="1" vertex="1">
          <mxGeometry x="230" y="128" width="240" height="570" as="geometry" />
        </mxCell>
        <mxCell id="DqZLcIyAYDGECO1wRY2--45" value="Confirm Request" style="whiteSpace=wrap;html=1;" vertex="1" parent="3">
          <mxGeometry x="75.5" y="50" width="120" height="60" as="geometry" />
        </mxCell>
        <mxCell id="4" value="Ingeniero de pruebas" style="swimlane;whiteSpace=wrap" parent="1" vertex="1">
          <mxGeometry x="470" y="128" width="280" height="570" as="geometry" />
        </mxCell>
        <mxCell id="DqZLcIyAYDGECO1wRY2--47" value="&lt;pre dir=&quot;ltr&quot; data-ved=&quot;2ahUKEwighbuz3fGFAxVrl-4BHSDPA7UQ3ewLegQIBRAT&quot; aria-label=&quot;Texto traducido&quot; style=&quot;text-align:left&quot; id=&quot;tw-target-text&quot; data-placeholder=&quot;Traducción&quot; class=&quot;tw-data-text tw-text-large tw-ta&quot;&gt;&lt;span lang=&quot;en&quot; class=&quot;Y2IQFc&quot;&gt;Engineer is assigned&lt;/span&gt;&lt;/pre&gt;" style="whiteSpace=wrap;html=1;" vertex="1" parent="4">
          <mxGeometry x="65.5" y="50" width="164.5" height="60" as="geometry" />
        </mxCell>
        <mxCell id="DqZLcIyAYDGECO1wRY2--46" value="" style="edgeStyle=orthogonalEdgeStyle;rounded=0;orthogonalLoop=1;jettySize=auto;html=1;" edge="1" parent="1" source="DqZLcIyAYDGECO1wRY2--43" target="DqZLcIyAYDGECO1wRY2--45">
          <mxGeometry relative="1" as="geometry">
            <Array as="points">
              <mxPoint x="363" y="390" />
              <mxPoint x="363" y="208" />
            </Array>
          </mxGeometry>
        </mxCell>
        <mxCell id="DqZLcIyAYDGECO1wRY2--48" value="" style="edgeStyle=orthogonalEdgeStyle;rounded=0;orthogonalLoop=1;jettySize=auto;html=1;" edge="1" parent="1" source="DqZLcIyAYDGECO1wRY2--45" target="DqZLcIyAYDGECO1wRY2--47">
          <mxGeometry relative="1" as="geometry" />
        </mxCell>
        <mxCell id="DqZLcIyAYDGECO1wRY2--49" value="Tecnico" style="swimlane;whiteSpace=wrap" vertex="1" parent="1">
          <mxGeometry x="750" y="128" width="260" height="570" as="geometry" />
        </mxCell>
        <mxCell id="DqZLcIyAYDGECO1wRY2--50" value="Technician is Asigned" style="whiteSpace=wrap;html=1;" vertex="1" parent="DqZLcIyAYDGECO1wRY2--49">
          <mxGeometry x="65.5" y="50" width="164.5" height="60" as="geometry" />
        </mxCell>
        <mxCell id="DqZLcIyAYDGECO1wRY2--51" value="" style="edgeStyle=orthogonalEdgeStyle;rounded=0;orthogonalLoop=1;jettySize=auto;html=1;" edge="1" parent="1" source="DqZLcIyAYDGECO1wRY2--47" target="DqZLcIyAYDGECO1wRY2--50">
          <mxGeometry relative="1" as="geometry" />
        </mxCell>
      </root>
    </mxGraphModel>
  </diagram>
</mxfile>
